<?xml version="1.0" encoding="UTF-8"?>
<!DOCTYPE svg PUBLIC "-//W3C//DTD SVG 1.1//EN" "http://www.w3.org/Graphics/SVG/1.1/DTD/svg11.dtd">
<svg xmlns="http://www.w3.org/2000/svg" version="1.1" width="32px" height="32px" style="shape-rendering:geometricPrecision; text-rendering:geometricPrecision; image-rendering:optimizeQuality; fill-rule:evenodd; clip-rule:evenodd" xmlns:xlink="http://www.w3.org/1999/xlink">
<g><path style="opacity:1" fill="#111111" d="M 6.5,-0.5 C 12.5,-0.5 18.5,-0.5 24.5,-0.5C 25.7817,1.46447 27.115,3.46447 28.5,5.5C 28.2528,6.71335 27.5862,7.38002 26.5,7.5C 23.2319,6.17782 19.5652,5.51115 15.5,5.5C 11.4348,5.51115 7.76809,6.17782 4.5,7.5C 3.41383,7.38002 2.74716,6.71335 2.5,5.5C 3.88502,3.46447 5.21835,1.46447 6.5,-0.5 Z"/></g>
<g><path style="opacity:1" fill="#e7e4e4" d="M 26.5,7.5 C 24.8235,8.18342 24.1568,9.51676 24.5,11.5C 18.5,11.5 12.5,11.5 6.5,11.5C 6.5,10.8333 6.5,10.1667 6.5,9.5C 29.1667,8.83333 29.1667,8.16667 6.5,7.5C 5.83333,7.5 5.16667,7.5 4.5,7.5C 7.76809,6.17782 11.4348,5.51115 15.5,5.5C 19.5652,5.51115 23.2319,6.17782 26.5,7.5 Z"/></g>
<g><path style="opacity:1" fill="#b0b0b0" d="M 6.5,7.5 C 29.1667,8.16667 29.1667,8.83333 6.5,9.5C 6.5,8.83333 6.5,8.16667 6.5,7.5 Z"/></g>
<g><path style="opacity:1" fill="#7d4b0d" d="M 6.5,11.5 C 12.5,11.5 18.5,11.5 24.5,11.5C 24.8432,13.4832 24.1765,14.8166 22.5,15.5C 21.88,13.0233 20.88,13.0233 19.5,15.5C 18.1667,12.8333 16.8333,12.8333 15.5,15.5C 14.1667,12.8333 12.8333,12.8333 11.5,15.5C 10.12,13.0233 9.12002,13.0233 8.5,15.5C 6.82351,14.8166 6.15684,13.4832 6.5,11.5 Z"/></g>
<g><path style="opacity:0.997" fill="#060504" d="M 26.5,7.5 C 27.1031,12.6186 26.4364,17.2853 24.5,21.5C 24.8432,19.5168 24.1765,18.1834 22.5,17.5C 22.5,16.8333 22.5,16.1667 22.5,15.5C 24.1765,14.8166 24.8432,13.4832 24.5,11.5C 24.1568,9.51676 24.8235,8.18342 26.5,7.5 Z"/></g>
<g><path style="opacity:1" fill="#0a0403" d="M 4.5,7.5 C 5.16667,7.5 5.83333,7.5 6.5,7.5C 6.5,8.16667 6.5,8.83333 6.5,9.5C 6.5,10.1667 6.5,10.8333 6.5,11.5C 6.15684,13.4832 6.82351,14.8166 8.5,15.5C 8.5,16.1667 8.5,16.8333 8.5,17.5C 6.82351,18.1834 6.15684,19.5168 6.5,21.5C 4.56356,17.2853 3.8969,12.6186 4.5,7.5 Z"/></g>
<g><path style="opacity:1" fill="#3f2a13" d="M 22.5,15.5 C 22.5,16.1667 22.5,16.8333 22.5,17.5C 21.88,19.9767 20.88,19.9767 19.5,17.5C 18.1667,20.1667 16.8333,20.1667 15.5,17.5C 14.1667,20.1667 12.8333,20.1667 11.5,17.5C 10.12,19.9767 9.12002,19.9767 8.5,17.5C 8.5,16.8333 8.5,16.1667 8.5,15.5C 9.12002,13.0233 10.12,13.0233 11.5,15.5C 12.8333,12.8333 14.1667,12.8333 15.5,15.5C 16.8333,12.8333 18.1667,12.8333 19.5,15.5C 20.88,13.0233 21.88,13.0233 22.5,15.5 Z"/></g>
<g><path style="opacity:1" fill="#79490d" d="M 8.5,17.5 C 9.12002,19.9767 10.12,19.9767 11.5,17.5C 12.8333,20.1667 14.1667,20.1667 15.5,17.5C 16.8333,20.1667 18.1667,20.1667 19.5,17.5C 20.88,19.9767 21.88,19.9767 22.5,17.5C 24.1765,18.1834 24.8432,19.5168 24.5,21.5C 23.8333,21.5 23.1667,21.5 22.5,21.5C 17.8333,21.5 13.1667,21.5 8.5,21.5C 7.83333,21.5 7.16667,21.5 6.5,21.5C 6.15684,19.5168 6.82351,18.1834 8.5,17.5 Z"/></g>
<g><path style="opacity:0.999" fill="#000000" d="M 6.5,21.5 C 7.16667,21.5 7.83333,21.5 8.5,21.5C 8.5,22.1667 8.5,22.8333 8.5,23.5C 8.5,25.5 8.5,27.5 8.5,29.5C 6.63105,27.3647 5.96438,24.6981 6.5,21.5 Z"/></g>
<g><path style="opacity:1" fill="#b0b0b0" d="M 8.5,21.5 C 13.1667,21.5 17.8333,21.5 22.5,21.5C 22.5,22.1667 22.5,22.8333 22.5,23.5C 17.8333,23.5 13.1667,23.5 8.5,23.5C 8.5,22.8333 8.5,22.1667 8.5,21.5 Z"/></g>
<g><path style="opacity:1" fill="#000000" d="M 22.5,21.5 C 23.1667,21.5 23.8333,21.5 24.5,21.5C 25.0356,24.6981 24.369,27.3647 22.5,29.5C 22.5,27.5 22.5,25.5 22.5,23.5C 22.5,22.8333 22.5,22.1667 22.5,21.5 Z"/></g>
<g><path style="opacity:1" fill="#e5e5e5" d="M 8.5,23.5 C 13.1667,23.5 17.8333,23.5 22.5,23.5C 22.5,25.5 22.5,27.5 22.5,29.5C 17.8333,29.5 13.1667,29.5 8.5,29.5C 8.5,27.5 8.5,25.5 8.5,23.5 Z"/></g>
<g><path style="opacity:0.996" fill="#000000" d="M 8.5,29.5 C 13.1667,29.5 17.8333,29.5 22.5,29.5C 22.5,30.1667 22.5,30.8333 22.5,31.5C 17.8333,31.5 13.1667,31.5 8.5,31.5C 8.5,30.8333 8.5,30.1667 8.5,29.5 Z"/></g>
</svg>
