<?xml version="1.0" encoding="UTF-8"?>
<!DOCTYPE svg PUBLIC "-//W3C//DTD SVG 1.1//EN" "http://www.w3.org/Graphics/SVG/1.1/DTD/svg11.dtd">
<svg xmlns="http://www.w3.org/2000/svg" version="1.1" width="32px" height="32px" style="shape-rendering:geometricPrecision; text-rendering:geometricPrecision; image-rendering:optimizeQuality; fill-rule:evenodd; clip-rule:evenodd" xmlns:xlink="http://www.w3.org/1999/xlink">
<g><path style="opacity:1" fill="#4078c0" d="M 6.5,-0.5 C 12.5,-0.5 18.5,-0.5 24.5,-0.5C 25.1667,0.833333 25.8333,2.16667 26.5,3.5C 19.1667,3.5 11.8333,3.5 4.5,3.5C 5.16667,2.16667 5.83333,0.833333 6.5,-0.5 Z"/></g>
<g><path style="opacity:1" fill="#4078c0" d="M 4.5,3.5 C 4.5,4.16667 4.5,4.83333 4.5,5.5C 4.5,6.16667 4.5,6.83333 4.5,7.5C 3.41383,7.38002 2.74716,6.71335 2.5,5.5C 2.74716,4.28665 3.41383,3.61998 4.5,3.5 Z"/></g>
<g><path style="opacity:1" fill="#181818" d="M 4.5,3.5 C 11.8333,3.5 19.1667,3.5 26.5,3.5C 26.5,4.16667 26.5,4.83333 26.5,5.5C 19.1667,5.5 11.8333,5.5 4.5,5.5C 4.5,4.83333 4.5,4.16667 4.5,3.5 Z"/></g>
<g><path style="opacity:1" fill="#4078c0" d="M 26.5,3.5 C 27.5862,3.61998 28.2528,4.28665 28.5,5.5C 28.2528,6.71335 27.5862,7.38002 26.5,7.5C 26.5,6.83333 26.5,6.16667 26.5,5.5C 26.5,4.83333 26.5,4.16667 26.5,3.5 Z"/></g>
<g><path style="opacity:1" fill="#e7e4e4" d="M 4.5,5.5 C 11.8333,5.5 19.1667,5.5 26.5,5.5C 26.5,6.16667 26.5,6.83333 26.5,7.5C 24.8235,8.18342 24.1568,9.51676 24.5,11.5C 18.5,11.5 12.5,11.5 6.5,11.5C 6.5,10.8333 6.5,10.1667 6.5,9.5C 29.1667,8.83333 29.1667,8.16667 6.5,7.5C 5.83333,7.5 5.16667,7.5 4.5,7.5C 4.5,6.83333 4.5,6.16667 4.5,5.5 Z"/></g>
<g><path style="opacity:1" fill="#4078c0" d="M 4.5,7.5 C 5.16667,7.5 5.83333,7.5 6.5,7.5C 6.5,8.16667 6.5,8.83333 6.5,9.5C 6.5,10.1667 6.5,10.8333 6.5,11.5C 6.5,12.8333 6.5,14.1667 6.5,15.5C 6.5,16.1667 6.5,16.8333 6.5,17.5C 6.5,18.8333 6.5,20.1667 6.5,21.5C 4.56356,17.2853 3.8969,12.6186 4.5,7.5 Z"/></g>
<g><path style="opacity:1" fill="#b0b0b0" d="M 6.5,7.5 C 29.1667,8.16667 29.1667,8.83333 6.5,9.5C 6.5,8.83333 6.5,8.16667 6.5,7.5 Z"/></g>
<g><path style="opacity:1" fill="#4078c0" d="M 26.5,7.5 C 27.1031,12.6186 26.4364,17.2853 24.5,21.5C 24.5,20.1667 24.5,18.8333 24.5,17.5C 24.5,16.8333 24.5,16.1667 24.5,15.5C 24.5,14.1667 24.5,12.8333 24.5,11.5C 24.1568,9.51676 24.8235,8.18342 26.5,7.5 Z"/></g>
<g><path style="opacity:1" fill="#7d4b0d" d="M 6.5,11.5 C 12.5,11.5 18.5,11.5 24.5,11.5C 24.5,12.8333 24.5,14.1667 24.5,15.5C 23.2652,15.2786 22.2652,14.6119 21.5,13.5C 20.1667,16.1667 18.8333,16.1667 17.5,13.5C 16.1667,16.1667 14.8333,16.1667 13.5,13.5C 12.1667,16.1667 10.8333,16.1667 9.5,13.5C 8.73485,14.6119 7.73485,15.2786 6.5,15.5C 6.5,14.1667 6.5,12.8333 6.5,11.5 Z"/></g>
<g><path style="opacity:1" fill="#3d2812" d="M 24.5,15.5 C 24.5,16.1667 24.5,16.8333 24.5,17.5C 23.2652,17.7214 22.2652,18.3881 21.5,19.5C 20.1667,16.8333 18.8333,16.8333 17.5,19.5C 16.1667,16.8333 14.8333,16.8333 13.5,19.5C 12.1667,16.8333 10.8333,16.8333 9.5,19.5C 8.73485,18.3881 7.73485,17.7214 6.5,17.5C 6.5,16.8333 6.5,16.1667 6.5,15.5C 7.73485,15.2786 8.73485,14.6119 9.5,13.5C 10.8333,16.1667 12.1667,16.1667 13.5,13.5C 14.8333,16.1667 16.1667,16.1667 17.5,13.5C 18.8333,16.1667 20.1667,16.1667 21.5,13.5C 22.2652,14.6119 23.2652,15.2786 24.5,15.5 Z"/></g>
<g><path style="opacity:1" fill="#7c490a" d="M 6.5,17.5 C 7.73485,17.7214 8.73485,18.3881 9.5,19.5C 10.8333,16.8333 12.1667,16.8333 13.5,19.5C 14.8333,16.8333 16.1667,16.8333 17.5,19.5C 18.8333,16.8333 20.1667,16.8333 21.5,19.5C 22.2652,18.3881 23.2652,17.7214 24.5,17.5C 24.5,18.8333 24.5,20.1667 24.5,21.5C 23.8333,21.5 23.1667,21.5 22.5,21.5C 17.8333,21.5 13.1667,21.5 8.5,21.5C 7.83333,21.5 7.16667,21.5 6.5,21.5C 6.5,20.1667 6.5,18.8333 6.5,17.5 Z"/></g>
<g><path style="opacity:1" fill="#4078c0" d="M 6.5,21.5 C 7.16667,21.5 7.83333,21.5 8.5,21.5C 8.5,22.1667 8.5,22.8333 8.5,23.5C 8.5,25.5 8.5,27.5 8.5,29.5C 6.63105,27.3647 5.96438,24.6981 6.5,21.5 Z"/></g>
<g><path style="opacity:1" fill="#b0b0b0" d="M 8.5,21.5 C 13.1667,21.5 17.8333,21.5 22.5,21.5C 22.5,22.1667 22.5,22.8333 22.5,23.5C 17.8333,23.5 13.1667,23.5 8.5,23.5C 8.5,22.8333 8.5,22.1667 8.5,21.5 Z"/></g>
<g><path style="opacity:1" fill="#4078c0" d="M 22.5,21.5 C 23.1667,21.5 23.8333,21.5 24.5,21.5C 25.0356,24.6981 24.369,27.3647 22.5,29.5C 22.5,27.5 22.5,25.5 22.5,23.5C 22.5,22.8333 22.5,22.1667 22.5,21.5 Z"/></g>
<g><path style="opacity:1" fill="#e5e5e5" d="M 8.5,23.5 C 13.1667,23.5 17.8333,23.5 22.5,23.5C 22.5,25.5 22.5,27.5 22.5,29.5C 17.8333,29.5 13.1667,29.5 8.5,29.5C 8.5,27.5 8.5,25.5 8.5,23.5 Z"/></g>
<g><path style="opacity:1" fill="#4078c0" d="M 8.5,29.5 C 13.1667,29.5 17.8333,29.5 22.5,29.5C 22.5,30.1667 22.5,30.8333 22.5,31.5C 17.8333,31.5 13.1667,31.5 8.5,31.5C 8.5,30.8333 8.5,30.1667 8.5,29.5 Z"/></g>
</svg>
